<?xml version="1.0" encoding="utf-8"?>
<!-- Generator: Adobe Illustrator 30.2.1, SVG Export Plug-In . SVG Version: 9.03 Build 0)  -->
<svg version="1.0" id="Camada_1" xmlns="http://www.w3.org/2000/svg" xmlns:xlink="http://www.w3.org/1999/xlink" x="0px" y="0px"
	 viewBox="0 0 2000 846.04" style="enable-background:new 0 0 2000 846.04;" xml:space="preserve">
<style type="text/css">
	.st0{clip-path:url(#SVGID_00000145745878396080814190000016766492039515720085_);}
	.st1{clip-path:url(#SVGID_00000082343983779649642540000010213508155973768360_);}
	.st2{fill:#FFFFFF;}
	.st3{clip-path:url(#SVGID_00000097484866682142500110000013608135116294198924_);}
	.st4{clip-path:url(#SVGID_00000022560071880708658870000000261068310939909010_);}
	.st5{clip-path:url(#SVGID_00000118397795499051458520000004719884224436146613_);}
	.st6{clip-path:url(#SVGID_00000009573572851650435760000017365520813661911975_);}
	.st7{clip-path:url(#SVGID_00000098916904236248057800000003186245212754391939_);}
	.st8{clip-path:url(#SVGID_00000128451723078527501780000001778802129839759014_);}
</style>
<g transform="matrix(1, 0, 0, 1, 0, 243)">
	<g>
		<defs>
			<rect id="SVGID_1_" y="-547.14" width="2000" height="1344"/>
		</defs>
		<clipPath id="SVGID_00000043415264533335743250000013578011037852943001_">
			<use xlink:href="#SVGID_1_"  style="overflow:visible;"/>
		</clipPath>
		<g style="clip-path:url(#SVGID_00000043415264533335743250000013578011037852943001_);">
			<g>
				<defs>
					<rect id="SVGID_00000002379955274776062760000011167059446061355182_" x="821.83" y="-41.3" width="474.17" height="474.16"/>
				</defs>
				<clipPath id="SVGID_00000018228390467416452510000007154773521503311517_">
					<use xlink:href="#SVGID_00000002379955274776062760000011167059446061355182_"  style="overflow:visible;"/>
				</clipPath>
				<g style="clip-path:url(#SVGID_00000018228390467416452510000007154773521503311517_);">
					<path class="st2" d="M1237.24,94.36c-52.59-52.58-129.38-71.17-200.45-48.51c-11.95,3.81-23.56,8.78-34.5,14.76l13.65,24.98
						c9.35-5.11,19.28-9.35,29.51-12.62c60.86-19.4,126.63-3.51,171.66,41.52c66.09,66.09,66.09,173.63,0,239.72
						c-66.1,66.09-173.64,66.08-239.72,0c-31.96-31.96-49.56-74.53-49.56-119.86c0-40.54,14.11-78.84,39.95-109.35l20.59,20.59
						c6.47,6.47,7.61,16.51,2.85,24.33c-29.02,47.75-22.96,110.97,18.27,152.2c24.19,24.2,55.98,36.3,87.77,36.3
						c31.79,0,63.57-12.1,87.77-36.3c48.4-48.4,48.4-127.15,0-175.54c-35.32-35.32-88.1-45.99-134.48-27.23l10.68,26.39
						c35.75-14.48,76.45-6.23,103.67,20.97c37.3,37.3,37.3,97.98,0,135.29c-37.31,37.3-97.99,37.28-135.29,0
						c-26.4-26.4-34.05-64.49-23.04-97.72c4.62-13.95,22.36-18.11,32.75-7.72l13.79,13.79c-10.36,19.06-7.52,43.45,8.59,59.56
						c9.8,9.8,22.68,14.71,35.55,14.71s25.75-4.91,35.55-14.71c19.6-19.6,19.6-51.49,0.01-71.09h-0.01
						c-9.49-9.5-22.12-14.73-35.55-14.73c-8.54,0-16.74,2.13-24.03,6.11L973.53,90.5l20.06-45.96c2.34-5.36,1.16-11.62-2.98-15.76
						l-65.1-65.1c-3.32-3.33-8.07-4.8-12.71-3.92c-4.62,0.87-8.52,3.97-10.4,8.29l-21.72,49.74L830.94,39.5
						c-4.32,1.89-7.42,5.78-8.29,10.41c-0.88,4.62,0.59,9.38,3.92,12.7l65.11,65.11c2.72,2.72,6.36,4.17,10.06,4.17
						c1.93,0,3.86-0.39,5.69-1.19l29.89-13.05c-24.64,33.65-37.96,74.12-37.96,116.7c0,52.94,20.57,102.66,57.91,139.99
						c38.59,38.59,89.29,57.89,139.99,57.89s101.39-19.3,139.99-57.89C1314.43,297.15,1314.42,171.55,1237.24,94.36z M920.14-1.44
						l43.48,43.48l-11.71,26.83l-33.25-33.24L908.42,25.4L920.14-1.44z M861.46,57.24l26.83-11.71l43.48,43.48l-26.83,11.71
						L861.46,57.24z"/>
				</g>
			</g>
			<g transform="matrix(1, 0, 0, 1, 413, 243)">
				<g>
					<defs>
						
							<rect id="SVGID_00000059298296484967315890000011480302926986221247_" x="137.67" y="-466.14" width="350.67" height="881.33"/>
					</defs>
					<clipPath id="SVGID_00000121976547063612186100000017878753457265060014_">
						<use xlink:href="#SVGID_00000059298296484967315890000011480302926986221247_"  style="overflow:visible;"/>
					</clipPath>
					<g style="clip-path:url(#SVGID_00000121976547063612186100000017878753457265060014_);">
						<g>
							<g transform="translate(0.373826, 464.431775)">
								<g>
									<path class="st2" d="M356.67-633.3c24.51,0,46.01,3.52,64.5,10.56c18.5,7.03,32.88,16.68,43.12,28.94
										c10.25,12.25,15.38,25.81,15.38,40.69c0,16.08-5.53,29.35-16.58,39.81c-11.06,10.45-26.03,15.67-44.92,15.67
										c-19.29,0-34.37-4.92-45.23-14.77c-10.85-9.84-16.27-23.21-16.27-40.1c0-8.04,1.21-16.48,3.62-25.31
										c-16.89,4.42-31.87,13.16-44.94,26.23c-13.06,13.06-21.8,30.24-26.23,51.54c-2.41,12.06-3.6,22.91-3.6,32.56
										c0,21.71,6.03,38.2,18.08,49.46c12.05,11.25,29.34,16.88,51.85,16.88c12.86,0,23.92-1.3,33.17-3.92
										c9.25-2.62,18.69-6.15,28.33-10.56c8.04-4.01,13.86-6.02,17.48-6.02c2.42,0,4.03,0.5,4.83,1.5c0.8,1,1.21,3.11,1.21,6.33
										c0.4,14.88-5.73,30.45-18.4,46.73c-12.67,16.28-30.16,29.95-52.46,41c-22.31,11.06-47.33,16.58-75.06,16.58
										c-28.95,0-54.57-5.32-76.88-15.98c-22.31-10.65-39.59-25.92-51.85-45.81c-12.27-19.9-18.4-43.12-18.4-69.67
										c0-12.46,1.61-26.32,4.83-41.6c10.84-49.83,34.86-87.41,72.04-112.73C261.49-620.64,305.61-633.3,356.67-633.3z"/>
								</g>
							</g>
						</g>
					</g>
				</g>
			</g>
			<g transform="matrix(1, 0, 0, 1, 894, 243)">
				<g>
					<defs>
						<rect id="SVGID_00000031198579984607290470000015793597979864776100_" x="298" y="-466.14" width="492" height="881.33"/>
					</defs>
					<clipPath id="SVGID_00000136406002147142571420000000744076637157608104_">
						<use xlink:href="#SVGID_00000031198579984607290470000015793597979864776100_"  style="overflow:visible;"/>
					</clipPath>
					<g style="clip-path:url(#SVGID_00000136406002147142571420000000744076637157608104_);">
						<g>
							<g transform="translate(50.583408, 464.431775)">
								<g>
									<path class="st2" d="M630.22-632.7c30.94,0,55.26,10.25,72.94,30.75c17.69,20.5,26.54,48.44,26.54,83.81
										c0,18.89-2.61,38.79-7.83,59.69c-12.06,49.85-34.57,87.74-67.54,113.67c-32.96,25.92-71.15,38.88-114.56,38.88
										c-27.74,0-51.85-5.82-72.35-17.48l-19.29,64.52c-1.61,4.42-2.42,8.64-2.42,12.67c0,4.42,1.01,8.13,3.02,11.15
										c2.01,3.01,4.62,5.93,7.83,8.75c3.22,3.21,5.33,5.82,6.33,7.83c1.01,2.01,1.11,4.42,0.31,7.23
										c-1.61,5.23-5.43,8.96-11.46,11.17c-6.03,2.21-15.27,3.31-27.73,3.31H285.92c-10.46,0-17.99-1.71-22.6-5.12
										c-4.63-3.42-5.94-7.74-3.94-12.96c0.81-3.22,2.22-5.84,4.23-7.85c2.02-2,4.83-3.81,8.44-5.42
										c6.03-4.02,10.85-8.14,14.48-12.35c3.61-4.22,6.83-10.96,9.65-20.21l88.02-288.81c1.21-3.62,1.81-6.64,1.81-9.04
										c0-4.43-1.01-7.95-3.02-10.56c-2-2.61-5.02-5.32-9.04-8.12c-4.02-3.22-6.83-6.03-8.44-8.44c-1.61-2.42-1.81-5.64-0.6-9.67
										c2.42-9.23,15.07-17.36,37.98-24.4c22.92-7.04,46.84-10.56,71.77-10.56c17.68,0,32.25,4.43,43.71,13.27
										c11.46,8.83,17.99,21.09,19.6,36.77C565.3-615.21,596.05-632.7,630.22-632.7z M560.26-453.62
										c9.65-35.78,14.48-60.5,14.48-74.17c0-8.44-1.31-13.97-3.92-16.58c-2.61-2.61-6.33-3.92-11.17-3.92
										c-3.61,0-8.23,1.71-13.85,5.12c-5.62,3.42-11.26,9.15-16.9,17.19l-47.62,157.96c4.82,4.83,10.65,7.25,17.48,7.25
										c10.86,0,21.21-6.13,31.06-18.4C539.66-391.42,549.81-416.24,560.26-453.62z"/>
								</g>
							</g>
						</g>
					</g>
				</g>
			</g>
			<g>
				<defs>
					<rect id="SVGID_00000053547533587623830130000004728499581655726265_" y="-546.66" width="682.67" height="1343.04"/>
				</defs>
				<clipPath id="SVGID_00000044156654232083807460000002139871545100400812_">
					<use xlink:href="#SVGID_00000053547533587623830130000004728499581655726265_"  style="overflow:visible;"/>
				</clipPath>
				<g style="clip-path:url(#SVGID_00000044156654232083807460000002139871545100400812_);">
					<g transform="matrix(1, 0, 0, 1, 0, 0.000000000000113687)">
						<g>
							<defs>
								<rect id="SVGID_00000008112269935983588220000002340009267012155547_" y="-547.14" width="682.67" height="1344"/>
							</defs>
							<clipPath id="SVGID_00000020372197673584494060000013118531123446780583_">
								<use xlink:href="#SVGID_00000008112269935983588220000002340009267012155547_"  style="overflow:visible;"/>
							</clipPath>
							<g style="clip-path:url(#SVGID_00000020372197673584494060000013118531123446780583_);">
								<g>
									<defs>
										<rect id="SVGID_00000177445742213730422990000003137492577844823730_" y="-221.8" width="672" height="622.67"/>
									</defs>
									<clipPath id="SVGID_00000043434902522801928230000010408555721491254191_">
										<use xlink:href="#SVGID_00000177445742213730422990000003137492577844823730_"  style="overflow:visible;"/>
									</clipPath>
									<g style="clip-path:url(#SVGID_00000043434902522801928230000010408555721491254191_);">
										<g>
											<g transform="translate(3.507976, 708.213729)">
												<g>
													<path class="st2" d="M345.52-929.77c34.36,0,66.11,4.15,95.27,12.44c29.17,8.28,58.78,21.31,88.85,39.1l21.19-17.48
														c14.72-11.67,26.84-19.65,36.35-23.94c9.51-4.3,20.41-6.46,32.69-6.46c14.73,0,26.4,3.22,34.98,9.67
														c8.59,6.45,12.9,15.81,12.9,28.08c0,4.92-0.92,10.14-2.75,15.67l-38.67,127.04c-4.31,14.74-9.68,25.18-16.12,31.31
														c-6.45,6.14-16.11,9.21-29,9.21c-13.5,0-25.31-4.14-35.44-12.42c-10.12-8.29-25.93-25.32-47.42-51.1
														c-21.49-24.55-40.98-41.9-58.48-52.02c-17.49-10.14-35.44-15.21-53.85-15.21c-13.5,0-24.85,4.45-34.06,13.35
														c-9.21,8.91-13.81,19.8-13.81,32.69c0,14.74,7.36,28.4,22.08,40.98c14.73,12.58,37.76,28.39,69.06,47.42
														c31.92,19.03,58.3,36.22,79.17,51.56c20.88,15.33,38.68,34.36,53.42,57.08c14.73,22.71,22.1,48.79,22.1,78.25
														c0,19.03-3.07,38.06-9.21,57.08c-14.74,49.11-43.29,86.41-85.65,111.88c-42.35,25.47-91.75,38.21-148.21,38.21
														c-42.36,0-77.97-4.91-106.81-14.73c-28.85-9.82-58.31-26.4-88.4-49.73l-33.15,27.62
														c-15.33,12.89-27.92,21.64-37.75,26.25c-9.82,4.6-20.86,6.9-33.13,6.9c-14.12,0-25.33-3.38-33.62-10.12
														c-8.28-6.75-12.42-15.96-12.42-27.62c0-6.14,1.23-12.58,3.69-19.33l45.1-137.19c4.92-15.96,11.67-27.31,20.25-34.06
														c8.59-6.75,19.65-10.12,33.15-10.12c14.12,0,26.86,4.91,38.21,14.73c11.36,9.82,26.25,27.62,44.67,53.4
														c19.64,28.24,37.9,47.89,54.77,58.94c16.89,11.04,36.99,16.56,60.31,16.56c16.57,0,29.3-2.6,38.21-7.81
														c8.9-5.22,15.19-13.67,18.88-25.33c1.22-3.07,1.83-7.67,1.83-13.81c0-14.73-7.06-28.23-21.17-40.5
														c-14.11-12.28-35.91-27.01-65.38-44.21c-31.31-19.03-56.78-36.05-76.42-51.08c-19.64-15.04-36.68-33.92-51.1-56.62
														c-14.42-22.72-21.62-49.42-21.62-80.1c0-21.48,3.38-42.67,10.12-63.54c12.89-42.34,39.28-76.41,79.17-102.19
														C248.22-916.88,293.95-929.77,345.52-929.77z"/>
												</g>
											</g>
										</g>
									</g>
								</g>
							</g>
						</g>
					</g>
				</g>
			</g>
			<g transform="matrix(1, 0, 0, 1, 1236, 243)">
				<g>
					<defs>
						<rect id="SVGID_00000085235353750349597060000006974688146997964205_" x="412" y="-466.14" width="352" height="881.33"/>
					</defs>
					<clipPath id="SVGID_00000050664825199556937600000017834493047401730479_">
						<use xlink:href="#SVGID_00000085235353750349597060000006974688146997964205_"  style="overflow:visible;"/>
					</clipPath>
					<g style="clip-path:url(#SVGID_00000050664825199556937600000017834493047401730479_);">
						<g>
							<g transform="translate(1.640673, 464.431775)">
								<g>
									<path class="st2" d="M616.94-633.3c51.05,0,88.03,8.14,110.94,24.42c22.92,16.28,34.38,37.08,34.38,62.42
										c0,7.64-0.8,14.68-2.4,21.1c-6.04,26.53-22.83,45.52-50.38,56.98c-27.53,11.45-59.98,17.17-97.35,17.17
										c-18.89,0-36.58-1.2-53.06-3.6c-0.41,20.91,5.22,35.58,16.88,44.02c11.67,8.43,27.95,12.65,48.85,12.65
										c9.64,0,18.88-1.1,27.73-3.31c8.84-2.21,20.1-5.52,33.77-9.94c11.25-4.03,18.88-6.04,22.9-6.04c4.43,0,6.65,2.61,6.65,7.83
										c0.4,14.07-4.83,28.85-15.69,44.33c-10.85,15.47-26.93,28.64-48.23,39.5c-21.31,10.85-47.04,16.27-77.19,16.27
										c-44.61,0-81.19-11.26-109.73-33.77c-28.54-22.51-42.81-55.27-42.81-98.27c0-12.07,1.61-26.14,4.83-42.21
										c10.04-49.44,32.04-86.73,66-111.85C526.99-620.74,568.3-633.3,616.94-633.3z M563.3-491.01c1.59,0.41,3.8,0.6,6.62,0.6
										c16.88,0,29.73-7.83,38.58-23.5c8.84-15.68,13.07-33.17,12.67-52.46c-0.41-11.26-3.62-16.9-9.65-16.9
										c-4.43,0-9.66,3.52-15.69,10.56c-6.03,7.03-11.96,17.58-17.79,31.65C572.22-526.98,567.31-510.3,563.3-491.01z"/>
								</g>
							</g>
						</g>
					</g>
				</g>
			</g>
			<g>
				<g transform="translate(1098.330343, 851.537421)">
					<g>
						<path class="st2" d="M408.57-263.29h-27.23v-135.98h53.52c7.61,0,14.11,1.53,19.5,4.58c5.4,3.04,9.69,7.04,12.85,12
							c3.18,4.95,5.31,10.43,6.4,16.46c1.08,6.03,1.08,12.03,0,18c-1.08,5.97-3.24,11.44-6.48,16.4c-3.24,4.95-7.56,8.95-12.96,12
							c-5.39,3.04-11.83,4.56-19.31,4.56h-26.29V-263.29z M408.57-341.75h24c3.68,0,6.59-1.01,8.75-3.04
							c2.17-2.04,3.63-4.58,4.4-7.62c0.76-3.04,0.76-6.08,0-9.12c-0.77-3.05-2.23-5.59-4.4-7.62c-2.16-2.04-5.07-3.06-8.75-3.06h-24
							V-341.75z"/>
					</g>
				</g>
			</g>
			<g>
				<g transform="translate(1184.445321, 851.537421)">
					<g>
						<path class="st2" d="M410.04-399.46h27.23v108.94h43.23v27.23h-70.46V-399.46z"/>
					</g>
				</g>
			</g>
			<g>
				<g transform="translate(1254.851103, 851.537421)">
					<g>
						<path class="st2" d="M421.33-263.29l57.33-141.1h2.85l57.31,141.1h-30.65l-5.54-14.67h-45.12l-5.33,14.67H421.33z
							 M467.41-303.48h25.15l-12.38-35.42L467.41-303.48z"/>
					</g>
				</g>
			</g>
			<g>
				<g transform="translate(1348.106621, 851.537421)">
					<g>
						<path class="st2" d="M491.83-337.37v74.08H464.6v-139.02h7.25l68.75,79.98v-76.94h27.42v138.83h-7.25L491.83-337.37z"/>
					</g>
				</g>
			</g>
		</g>
	</g>
</g>
</svg>
